PathFileType	4	(X/Y/Z)	/Users/visionmauri/Downloads/Videos/OAW02-top_Sports2D/OAW02-top_Sports2D_m_person00.trc
DataRate	CameraRate	NumFrames	NumMarkers	Units	OrigDataRate	OrigDataStartFrame	OrigNumFrames
30.0	30.0	7	22	m	30.0	539	2158
Frame#	Time	Hip			RHip			RKnee			RAnkle			RBigToe			RSmallToe			RHeel			LHip			LKnee			LAnkle			LBigToe			LSmallToe			LHeel			Neck			Head			Nose			RShoulder			RElbow			RWrist			LShoulder			LElbow			LWrist			
		X1	Y1	Z1	X2	Y2	Z2	X3	Y3	Z3	X4	Y4	Z4	X5	Y5	Z5	X6	Y6	Z6	X7	Y7	Z7	X8	Y8	Z8	X9	Y9	Z9	X10	Y10	Z10	X11	Y11	Z11	X12	Y12	Z12	X13	Y13	Z13	X14	Y14	Z14	X15	Y15	Z15	X16	Y16	Z16	X17	Y17	Z17	X18	Y18	Z18	X19	Y19	Z19	X20	Y20	Z20	X21	Y21	Z21	X22	Y22	Z22
539	17.97499613660949	7.010310855343463	-0.2978325243425362	0.0301	7.107065623290332	-0.15778422006849327	0.0301	7.471174556937742	-0.3099933389684357	0.129	7.935888632745021	-0.47293613361812986	0.023	8.018620599080597	-0.5737940954634929	0.2179	8.064638259604074	-0.4706777468307597	0.1804	8.053835134967324	-0.5257264906994037	-0.0119	7.020786495240828	-0.453468326540932	0.0301	7.514547484949821	-0.5958457544007966	0.129	8.086417277869106	-0.7473228758172431	0.023	8.070104451693625	-0.698414302828637	0.2179	8.096311392638393	-0.8195091181275282	0.1804	8.219653624517223	-0.7621212947773207	-0.0119	6.11784237572665	-0.021659680991702856	0.0008	5.8254335192355615	0.0807364488846391	0.0655	6.014791221923996	0.03503249679657286	0.1076	6.362689930428785	0.20216593949704592	-0.01275	6.8022029579462755	0.1704634752226985	0.0702	7.1276264165848096	0.11184571776872074	0.1076	6.167331765667672	-0.3605721525258922	-0.01275	6.522536072279594	-0.6127399291927171	0.0702	6.831512804278554	-0.7864129055187898	0.1076
540	18.00834492350487	6.999722957902157	-0.2975558364191378	0.0301	7.097867349013923	-0.16153218378686152	0.0301	7.431095070553102	-0.2987719245596176	0.129	7.859489637374689	-0.46067903035176944	0.023	7.886330389797333	-0.5246798411187383	0.2179	7.927677500852691	-0.4278407168622966	0.1804	7.968593511932117	-0.5163513274119096	-0.0119	7.018249362702006	-0.4521291556953587	0.0301	7.5204488040089785	-0.5928366084057647	0.129	8.082951221754112	-0.7424344146507008	0.023	8.071576820855162	-0.6976830088462233	0.2179	8.101700063782177	-0.8153759811970992	0.1804	8.214942646827316	-0.7563128718564542	-0.0119	6.103042434774528	-0.019692477941805456	0.0008	5.823566816550114	0.0791974652842251	0.0655	6.003976857354405	0.041388133390913406	0.1076	6.350373848664673	0.19900440150179163	-0.01275	6.775513984653669	0.17453151881292983	0.0702	7.106092964345572	0.13098673754685922	0.1076	6.160826872007397	-0.35611934733911693	-0.01275	6.503831750357562	-0.6114460476913638	0.0702	6.799609917852279	-0.7774479547731927	0.1076
541	18.04169371040025	6.984491472149733	-0.29450161066985037	0.0301	7.076990579458051	-0.1569090025772105	0.0301	7.387002392372317	-0.2866497895368184	0.129	7.7737622452903485	-0.4437430850611221	0.023	7.7627702241847345	-0.48362162229672184	0.2179	7.80370526631694	-0.3951350877725617	0.1804	7.878740378853323	-0.500752119101706	-0.0119	7.003742728471343	-0.4489760635037596	0.0301	7.516178785496524	-0.5846726725917324	0.129	8.077728962073216	-0.734541816817683	0.023	8.074563386882293	-0.6938197937410474	0.2179	8.106145475019307	-0.8095020138402231	0.1804	8.205798084126943	-0.7487701283496266	-0.0119	6.0935085204039545	-0.019462555403781088	0.0008	5.821335631608458	0.07947696751283484	0.0655	5.99440463401019	0.043466239651510565	0.1076	6.340449689718775	0.1967295496382601	-0.01275	6.755659354388856	0.18061676868436022	0.0702	7.093568815283296	0.14641600206037741	0.1076	6.155274917083974	-0.3510098768436341	-0.01275	6.491404138955404	-0.6070752062546666	0.0702	6.774733223973845	-0.7645926412494468	0.1076
542	18.075042497295627	6.9658793768656375	-0.28751491280193375	0.0301	7.052645209112423	-0.1464281201523163	0.0301	7.344858500597875	-0.27775987538662417	0.129	7.687101327271358	-0.424899163895729	0.023	7.65363807324228	-0.4598840540868317	0.2179	7.709935399207977	-0.37850488997553594	0.1804	7.790477352722867	-0.48141368096056475	-0.0119	6.981209527675568	-0.4427339606955594	0.0301	7.505584095385186	-0.5759238121905934	0.129	8.07411594272004	-0.7277792623129785	0.023	8.084779442735195	-0.6862497288735115	0.2179	8.109525459375025	-0.8024516795168938	0.1804	8.199289398807258	-0.7419376177602102	-0.0119	6.088475178693958	-0.017116974462493897	0.0008	5.8179847240023905	0.08050146351295902	0.0655	5.98626154711615	0.045602201714860964	0.1076	6.333112521025852	0.19637963938783143	-0.01275	6.7450596156771505	0.18887599730149357	0.0702	7.0863641805978155	0.16084751775331205	0.1076	6.148915482000802	-0.3439087403708499	-0.01275	6.482543172292614	-0.5996638801124863	0.0702	6.755589019003784	-0.749827290373717	0.1076
543	18.108391284191008	6.94795148739045	-0.2801810498279416	0.0301	7.034101386368185	-0.13722888447162998	0.0301	7.310656596051421	-0.27269706947259753	0.129	7.615057236073849	-0.4075057883170382	0.023	7.557332976957054	-0.4496663040485435	0.2179	7.6458085473579045	-0.3740811753055362	0.1804	7.712091189227812	-0.46170281214460285	-0.0119	6.959357397049948	-0.4349675484796456	0.0301	7.490547003195367	-0.568503642304178	0.129	8.067246728216395	-0.7230639524581506	0.023	8.09159533060908	-0.6800786781597827	0.2179	8.106635078035303	-0.7943330089912979	0.1804	8.195046926657778	-0.7356655921334881	-0.0119	6.083116147475384	-0.011408154998981365	0.0008	5.812523981786481	0.08168657225845698	0.0655	5.980299807887332	0.05136782492489673	0.1076	6.322847430688788	0.19812863582918358	-0.01275	6.7372947526581095	0.19703701475128638	0.0702	7.079302200110818	0.17480300913082963	0.1076	6.13999202337602	-0.3340935079072886	-0.01275	6.474229374467502	-0.5901153301660869	0.0702	6.740243999162375	-0.7333817723690657	0.1076
544	18.141740071086385	6.9292765576657285	-0.2733568792685172	0.0301	7.017122907645191	-0.13089302519590018	0.0301	7.279749147303	-0.26566110181171404	0.129	7.566735264585179	-0.39378398974379025	0.023	7.4866959425332995	-0.44430048472047723	0.2179	7.601008720801478	-0.37112917830147213	0.1804	7.652936547628383	-0.4456263631992668	-0.0119	6.93858690989797	-0.4260287286745853	0.0301	7.46675281353068	-0.5589340394628083	0.129	8.04966324214454	-0.7173788822787676	0.023	8.085978857637574	-0.6769062090398367	0.2179	8.095219049152266	-0.7858463036851754	0.1804	8.184606104614048	-0.729562458608222	-0.0119	6.0738906780501445	-0.0046093357143869255	0.0008	5.804853932335076	0.08523602017471356	0.0655	5.975368901896257	0.06007935340247708	0.1076	6.306543690714992	0.20227183651491068	-0.01275	6.724506444246043	0.2037704588919577	0.0702	7.0705852571235575	0.18568672273553943	0.1076	6.127984832433059	-0.3218113155847239	-0.01275	6.462095959573786	-0.5770230153033006	0.0702	6.725339129655816	-0.7136853415045957	0.1076
545	18.175088857981766	6.907045070960222	-0.2644773904856408	0.0301	6.993397035933233	-0.12456806564315186	0.0301	7.246403731998178	-0.2530839800551457	0.129	7.540428817434131	-0.38507185460310284	0.023	7.450761484389777	-0.4353387862904877	0.2179	7.5627429350858515	-0.3609683417600656	0.1804	7.617074886107479	-0.4361613310343558	-0.0119	6.91436230471916	-0.416051566168102	0.0301	7.432226883821486	-0.5453162133132534	0.129	8.019384797275654	-0.7089133600725266	0.023	8.064935771339705	-0.6738381060661879	0.2179	8.074112595548938	-0.7783880170190841	0.1804	8.159038639005272	-0.7252451916799559	-0.0119	6.063058981899628	0.002212766257215684	0.0008	5.796643991571965	0.09405822316317539	0.0655	5.969370581893253	0.06926986415626331	0.1076	6.2885535985001155	0.2088645536473151	-0.01275	6.706499307673406	0.20948251378568894	0.0702	7.059634834254336	0.19291956668807442	0.1076	6.114755201233052	-0.3078269481152909	-0.01275	6.443909009674317	-0.5587656388213582	0.0702	6.708880186181145	-0.6915448149356411	0.1076
